<svg data-v-423bf9ae="" xmlns="http://www.w3.org/2000/svg" viewBox="0 0 506 90" class="iconLeft"><!----><!----><!----><g data-v-423bf9ae="" id="9abd8025-648a-4b3c-9679-a280d0238319" fill="#1F1E1A" transform="matrix(4.357298631868611,0,0,4.357298631868611,95.30129026421767,4.281043768873992)"><path d="M-0.28 14.81L-0.28 14.81L-0.28 14.81Q-0.28 14.55 0.53 12.82L0.53 12.82L0.53 12.82Q1.34 11.10 2.37 8.91L2.37 8.91L2.37 8.91Q3.40 6.72 3.77 5.73L3.77 5.73L4.02 5.04L4.02 5.04Q3.91 4.84 3.47 4.33L3.47 4.33L3.47 4.33Q3.98 4.16 4.35 4.16L4.35 4.16L4.35 4.16Q4.72 4.16 4.96 4.21L4.96 4.21L4.96 4.21Q5.21 4.27 5.40 4.40L5.40 4.40L5.40 4.40Q5.59 4.54 5.73 4.68L5.73 4.68L5.73 4.68Q5.88 4.82 6.01 5.09L6.01 5.09L6.01 5.09Q6.13 5.36 6.22 5.58L6.22 5.58L6.22 5.58Q6.30 5.80 6.41 6.19L6.41 6.19L6.41 6.19Q6.51 6.58 6.57 6.87L6.57 6.87L6.57 6.87Q6.64 7.15 6.74 7.67L6.74 7.67L6.74 7.67Q6.85 8.18 6.96 8.65L6.96 8.65L6.96 8.65Q7.07 9.13 7.35 10.46L7.35 10.46L7.35 10.46Q7.63 11.80 7.79 12.47L7.79 12.47L7.79 12.47Q7.95 13.13 8.25 13.96L8.25 13.96L8.25 13.96Q8.55 14.78 8.89 15.26L8.89 15.26L8.89 15.26Q8.08 15.65 7.57 15.65L7.57 15.65L7.57 15.65Q7.07 15.65 6.83 15.39L6.83 15.39L6.83 15.39Q6.59 15.13 6.43 14.61L6.43 14.61L6.43 14.61Q6.26 14.08 5.77 11.79L5.77 11.79L5.77 11.79Q5.45 12.07 4.72 12.10L4.72 12.10L2.32 12.18L2.32 12.18Q1.47 14.27 1.06 15.89L1.06 15.89L1.06 15.89Q-0.28 15.41-0.28 14.81ZM4.66 6.90L4.66 6.90L4.66 6.90Q4.47 7.35 3.80 8.81L3.80 8.81L3.80 8.81Q3.14 10.28 2.77 11.14L2.77 11.14L5.64 11.14L5.64 11.14Q4.98 8.12 4.66 6.90ZM11.63 12.78L11.63 12.78L11.63 12.78Q11.63 13.44 11.88 13.85L11.88 13.85L11.88 13.85Q12.12 14.27 12.57 14.27L12.57 14.27L12.57 14.27Q13.23 14.27 13.82 13.50L13.82 13.50L13.82 13.50Q14.42 12.73 14.78 11.52L14.78 11.52L14.78 11.52Q15.13 10.32 15.13 9.23L15.13 9.23L15.13 9.23Q15.13 8.15 15.05 7.48L15.05 7.48L15.05 7.48Q15.47 7.45 15.64 7.45L15.64 7.45L15.64 7.45Q16.35 7.45 16.72 7.71L16.72 7.71L16.72 7.71Q17.08 7.98 17.08 8.67L17.08 8.67L17.08 8.67Q17.08 8.93 16.74 10.83L16.74 10.83L16.74 10.83Q16.41 12.73 16.41 13.87L16.41 13.87L16.41 13.87Q16.41 15.01 16.84 15.89L16.84 15.89L16.84 15.89Q15.79 15.71 15.30 15.11L15.30 15.11L15.30 15.11Q14.81 14.52 14.81 13.40L14.81 13.40L14.81 13.40Q14.81 13.20 14.87 12.64L14.87 12.64L14.87 12.64Q14.49 13.97 13.52 14.78L13.52 14.78L13.52 14.78Q12.56 15.60 11.63 15.60L11.63 15.60L11.63 15.60Q10.70 15.60 10.13 14.90L10.13 14.90L10.13 14.90Q9.56 14.21 9.56 12.94L9.56 12.94L9.56 12.94Q9.56 11.66 10.02 10.46L10.02 10.46L10.02 10.46Q10.47 9.27 11.38 8.44L11.38 8.44L11.38 8.44Q12.29 7.60 13.41 7.60L13.41 7.60L13.41 7.60Q14.06 7.60 14.73 7.91L14.73 7.91L14.73 7.91Q13.31 8.41 12.47 9.89L12.47 9.89L12.47 9.89Q11.63 11.37 11.63 12.78ZM21.90 8.18L21.90 8.18L21.90 8.18Q21.50 8.18 21.20 8.44L21.20 8.44L21.20 8.44Q20.89 8.69 20.89 9.17L20.89 9.17L20.89 9.17Q20.89 9.65 21.22 10.07L21.22 10.07L21.22 10.07Q21.55 10.49 22.02 10.80L22.02 10.80L22.02 10.80Q22.50 11.12 22.98 11.45L22.98 11.45L22.98 11.45Q23.46 11.77 23.83 12.26L23.83 12.26L23.83 12.26Q24.19 12.74 24.23 13.33L24.23 13.33L24.23 13.33Q24.23 14.34 23.37 15.02L23.37 15.02L23.37 15.02Q22.50 15.71 21.21 15.71L21.21 15.71L21.21 15.71Q19.92 15.71 19.19 15.19L19.19 15.19L19.19 15.19Q18.45 14.67 18.45 14L18.45 14L18.45 14Q18.45 13.33 18.87 12.92L18.87 12.92L18.87 12.92Q19.28 12.50 19.89 12.50L19.89 12.50L19.89 12.50Q20.22 12.50 20.50 12.61L20.50 12.61L20.50 12.61Q20.05 13.09 20.05 13.62L20.05 13.62L20.05 13.62Q20.05 14.15 20.34 14.48L20.34 14.48L20.34 14.48Q20.64 14.80 21.14 14.80L21.14 14.80L21.14 14.80Q21.64 14.80 21.99 14.54L21.99 14.54L21.99 14.54Q22.33 14.28 22.33 13.87L22.33 13.87L22.33 13.87Q22.33 13.45 22.09 13.13L22.09 13.13L22.09 13.13Q21.85 12.81 21.50 12.57L21.50 12.57L21.50 12.57Q21.14 12.32 20.72 12.01L20.72 12.01L20.72 12.01Q20.30 11.70 19.94 11.39L19.94 11.39L19.94 11.39Q19.59 11.07 19.35 10.59L19.35 10.59L19.35 10.59Q19.11 10.11 19.11 9.53L19.11 9.53L19.11 9.53Q19.11 8.54 19.93 7.90L19.93 7.90L19.93 7.90Q20.75 7.27 21.97 7.27L21.97 7.27L21.97 7.27Q23.20 7.27 23.77 7.74L23.77 7.74L23.77 7.74Q24.33 8.22 24.33 8.86L24.33 8.86L24.33 8.86Q24.33 9.49 23.93 9.94L23.93 9.94L23.93 9.94Q23.53 10.39 22.90 10.39L22.90 10.39L22.90 10.39Q22.60 10.39 22.20 10.26L22.20 10.26L22.20 10.26Q22.51 10.00 22.68 9.65L22.68 9.65L22.68 9.65Q22.85 9.31 22.85 8.97L22.85 8.97L22.85 8.97Q22.85 8.64 22.57 8.41L22.57 8.41L22.57 8.41Q22.29 8.18 21.90 8.18ZM28.52 10.60L28.52 10.60L28.52 10.60Q28.29 11.84 28.17 12.81L28.17 12.81L28.17 12.81Q28.04 13.78 28.04 14.78L28.04 14.78L28.04 14.78Q28.04 15.79 28.24 16.23L28.24 16.23L28.24 16.23Q27.16 15.95 26.75 15.37L26.75 15.37L26.75 15.37Q26.35 14.78 26.35 13.72L26.35 13.72L26.35 13.72Q26.35 12.78 26.64 11.15L26.64 11.15L26.64 11.15Q26.94 9.52 27.02 8.95L27.02 8.95L27.02 8.95Q26.29 9.07 25.47 9.44L25.47 9.44L25.47 9.44Q25.44 9.13 25.44 8.97L25.44 8.97L25.44 8.97Q25.44 8.23 25.89 7.96L25.89 7.96L25.89 7.96Q26.33 7.69 27.17 7.67L27.17 7.67L27.17 7.67Q27.27 6.62 27.27 6.16L27.27 6.16L27.27 6.16Q27.27 5.70 27.27 5.39L27.27 5.39L27.27 5.39Q27.26 5.08 27.26 4.93L27.26 4.93L27.26 4.93Q28.18 5.03 28.60 5.48L28.60 5.48L28.60 5.48Q29.02 5.94 29.02 6.78L29.02 6.78L29.02 6.78Q29.02 7.11 28.95 7.71L28.95 7.71L28.95 7.71Q30.13 7.69 30.67 7.25L30.67 7.25L30.67 7.25Q30.70 7.53 30.70 7.67L30.70 7.67L30.70 7.67Q30.70 8.34 30.46 8.60L30.46 8.60L30.46 8.60Q30.23 8.86 29.67 8.86L29.67 8.86L29.67 8.86Q29.11 8.86 28.81 8.85L28.81 8.85L28.81 8.85Q28.74 9.35 28.52 10.60ZM33.26 11.10L33.26 11.10Q33.73 9.52 34.71 8.44L34.71 8.44L34.71 8.44Q35.69 7.35 36.53 7.35L36.53 7.35L36.53 7.35Q37.38 7.35 37.74 7.86L37.74 7.86L37.74 7.86Q38.09 8.37 38.09 9.25L38.09 9.25L38.09 9.25Q38.09 10.12 37.82 11.70L37.82 11.70L37.82 11.70Q37.55 13.29 37.55 14.01L37.55 14.01L37.55 14.01Q37.55 14.73 37.73 15.06L37.73 15.06L37.73 15.06Q37.91 15.39 38.35 15.62L38.35 15.62L38.35 15.62Q38.16 15.64 37.83 15.64L37.83 15.64L37.83 15.64Q36.65 15.64 36.16 15.27L36.16 15.27L36.16 15.27Q35.66 14.91 35.66 14L35.66 14L35.66 14Q35.66 13.48 35.94 11.98L35.94 11.98L35.94 11.98Q36.22 10.47 36.22 9.73L36.22 9.73L36.22 9.73Q36.22 8.81 35.66 8.81L35.66 8.81L35.66 8.81Q35.32 8.81 34.92 9.18L34.92 9.18L34.92 9.18Q34.51 9.56 34.14 10.21L34.14 10.21L34.14 10.21Q33.77 10.86 33.52 11.89L33.52 11.89L33.52 11.89Q33.26 12.91 33.26 13.92L33.26 13.92L33.26 13.92Q33.26 14.94 33.35 15.43L33.35 15.43L33.35 15.43Q32.90 15.46 32.76 15.46L32.76 15.46L32.76 15.46Q31.96 15.46 31.61 15.18L31.61 15.18L31.61 15.18Q31.26 14.91 31.26 14.31L31.26 14.31L31.26 14.31Q31.26 13.71 31.50 12.01L31.50 12.01L31.50 12.01Q32.26 6.80 32.26 4.10L32.26 4.10L32.26 4.10Q32.26 2.88 32.09 2.46L32.09 2.46L32.09 2.46Q33.14 2.74 33.52 3.31L33.52 3.31L33.52 3.31Q33.91 3.88 33.91 4.91L33.91 4.91L33.91 4.91Q33.91 5.61 33.63 7.85L33.63 7.85L33.63 7.85Q33.36 10.09 33.26 11.10L33.26 11.10ZM41.65 12.78L41.65 12.78L41.65 12.78Q41.65 13.44 41.89 13.85L41.89 13.85L41.89 13.85Q42.14 14.27 42.59 14.27L42.59 14.27L42.59 14.27Q43.25 14.27 43.84 13.50L43.84 13.50L43.84 13.50Q44.44 12.73 44.79 11.52L44.79 11.52L44.79 11.52Q45.15 10.32 45.15 9.23L45.15 9.23L45.15 9.23Q45.15 8.15 45.07 7.48L45.07 7.48L45.07 7.48Q45.49 7.45 45.65 7.45L45.65 7.45L45.65 7.45Q46.37 7.45 46.73 7.71L46.73 7.71L46.73 7.71Q47.10 7.98 47.10 8.67L47.10 8.67L47.10 8.67Q47.10 8.93 46.76 10.83L46.76 10.83L46.76 10.83Q46.42 12.73 46.42 13.87L46.42 13.87L46.42 13.87Q46.42 15.01 46.86 15.89L46.86 15.89L46.86 15.89Q45.81 15.71 45.32 15.11L45.32 15.11L45.32 15.11Q44.83 14.52 44.83 13.40L44.83 13.40L44.83 13.40Q44.83 13.20 44.88 12.64L44.88 12.64L44.88 12.64Q44.51 13.97 43.54 14.78L43.54 14.78L43.54 14.78Q42.57 15.60 41.64 15.60L41.64 15.60L41.64 15.60Q40.71 15.60 40.14 14.90L40.14 14.90L40.14 14.90Q39.58 14.21 39.58 12.94L39.58 12.94L39.58 12.94Q39.58 11.66 40.03 10.46L40.03 10.46L40.03 10.46Q40.49 9.27 41.40 8.44L41.40 8.44L41.40 8.44Q42.31 7.60 43.43 7.60L43.43 7.60L43.43 7.60Q44.07 7.60 44.74 7.91L44.74 7.91L44.74 7.91Q43.33 8.41 42.49 9.89L42.49 9.89L42.49 9.89Q41.65 11.37 41.65 12.78ZM52.95 4.49L52.95 4.49L52.95 4.49Q54.46 4.75 56.57 4.75L56.57 4.75L56.57 4.75Q58.69 4.75 61.00 4.24L61.00 4.24L61.00 4.24Q60.76 6.02 59.19 6.19L59.19 6.19L59.19 6.19Q58.70 6.26 57.68 6.33L57.68 6.33L57.68 6.33Q57.65 6.73 57.22 9.88L57.22 9.88L57.22 9.88Q56.78 13.02 56.78 14.21L56.78 14.21L56.78 14.21Q56.78 15.40 56.98 15.86L56.98 15.86L56.98 15.86Q55.79 15.55 55.36 15.04L55.36 15.04L55.36 15.04Q54.92 14.53 54.92 13.78L54.92 13.78L54.92 13.78Q54.92 13.02 55.28 10.49L55.28 10.49L55.28 10.49Q55.64 7.97 55.71 6.43L55.71 6.43L55.71 6.43Q54.57 6.48 53.48 6.48L53.48 6.48L53.48 6.48Q52.84 6.48 52.84 5.33L52.84 5.33L52.84 5.33Q52.86 4.79 52.95 4.49ZM63.20 10.88L63.20 10.88Q63.70 9.06 64.41 8.20L64.41 8.20L64.41 8.20Q65.11 7.34 65.72 7.34L65.72 7.34L65.72 7.34Q66.33 7.34 66.64 7.79L66.64 7.79L66.64 7.79Q66.95 8.25 66.95 8.97L66.95 8.97L66.95 8.97Q66.95 9.69 66.52 10.29L66.52 10.29L66.52 10.29Q66.09 10.89 65.35 10.89L65.35 10.89L65.35 10.89Q65.16 10.89 64.89 10.78L64.89 10.78L64.89 10.78Q65.32 10.23 65.32 9.46L65.32 9.46L65.32 9.46Q65.32 9.02 64.96 9.02L64.96 9.02L64.96 9.02Q64.69 9.02 64.39 9.39L64.39 9.39L64.39 9.39Q64.08 9.76 63.80 10.41L63.80 10.41L63.80 10.41Q63.52 11.06 63.33 12.08L63.33 12.08L63.33 12.08Q63.14 13.09 63.14 14.24L63.14 14.24L63.14 14.24Q63.14 14.38 63.21 15.43L63.21 15.43L63.21 15.43Q62.76 15.46 62.64 15.46L62.64 15.46L62.64 15.46Q61.84 15.46 61.49 15.18L61.49 15.18L61.49 15.18Q61.14 14.90 61.14 14.25L61.14 14.25L61.14 14.25Q61.14 13.97 61.43 12.10L61.43 12.10L61.43 12.10Q61.73 10.22 61.73 9.11L61.73 9.11L61.73 9.11Q61.73 7.99 61.49 7.06L61.49 7.06L61.49 7.06Q62.51 7.38 62.92 7.97L62.92 7.97L62.92 7.97Q63.32 8.57 63.32 9.36L63.32 9.36L63.32 9.36Q63.32 10.15 63.20 10.88L63.20 10.88ZM69.24 12.78L69.24 12.78L69.24 12.78Q69.24 13.44 69.49 13.85L69.49 13.85L69.49 13.85Q69.73 14.27 70.18 14.27L70.18 14.27L70.18 14.27Q70.84 14.27 71.44 13.50L71.44 13.50L71.44 13.50Q72.03 12.73 72.39 11.52L72.39 11.52L72.39 11.52Q72.74 10.32 72.74 9.23L72.74 9.23L72.74 9.23Q72.74 8.15 72.66 7.48L72.66 7.48L72.66 7.48Q73.08 7.45 73.25 7.45L73.25 7.45L73.25 7.45Q73.96 7.45 74.33 7.71L74.33 7.71L74.33 7.71Q74.69 7.98 74.69 8.67L74.69 8.67L74.69 8.67Q74.69 8.93 74.35 10.83L74.35 10.83L74.35 10.83Q74.02 12.73 74.02 13.87L74.02 13.87L74.02 13.87Q74.02 15.01 74.45 15.89L74.45 15.89L74.45 15.89Q73.40 15.71 72.91 15.11L72.91 15.11L72.91 15.11Q72.42 14.52 72.42 13.40L72.42 13.40L72.42 13.40Q72.42 13.20 72.48 12.64L72.48 12.64L72.48 12.64Q72.10 13.97 71.13 14.78L71.13 14.78L71.13 14.78Q70.17 15.60 69.24 15.60L69.24 15.60L69.24 15.60Q68.31 15.60 67.74 14.90L67.74 14.90L67.74 14.90Q67.17 14.21 67.17 12.94L67.17 12.94L67.17 12.94Q67.17 11.66 67.63 10.46L67.63 10.46L67.63 10.46Q68.08 9.27 68.99 8.44L68.99 8.44L68.99 8.44Q69.90 7.60 71.02 7.60L71.02 7.60L71.02 7.60Q71.67 7.60 72.34 7.91L72.34 7.91L72.34 7.91Q70.92 8.41 70.08 9.89L70.08 9.89L70.08 9.89Q69.24 11.37 69.24 12.78ZM79.25 15.43L79.25 15.43L79.25 15.43Q78.81 15.62 78.32 15.62L78.32 15.62L78.32 15.62Q77.83 15.62 77.77 15.41L77.77 15.41L77.77 15.41Q77.55 14.52 77.25 12.73L77.25 12.73L77.25 12.73Q76.96 10.95 76.66 9.61L76.66 9.61L76.66 9.61Q76.36 8.27 75.94 7.59L75.94 7.59L75.94 7.59Q76.71 7.22 77.17 7.22L77.17 7.22L77.17 7.22Q77.63 7.22 77.87 7.43L77.87 7.43L77.87 7.43Q78.11 7.64 78.27 8.27L78.27 8.27L78.27 8.27Q78.43 8.89 78.50 9.30L78.50 9.30L78.50 9.30Q78.69 10.64 78.69 10.79L78.69 10.79L78.69 10.79Q78.69 10.95 78.81 12.05L78.81 12.05L78.81 12.05Q78.92 13.15 78.97 13.50L78.97 13.50L78.97 13.50Q81.47 8.67 81.47 7.04L81.47 7.04L81.47 7.04Q82.61 7.63 82.61 8.32L82.61 8.32L82.61 8.32Q82.61 8.88 82.03 9.98L82.03 9.98L82.03 9.98Q81.45 11.07 80.58 12.64L80.58 12.64L80.58 12.64Q79.70 14.20 79.25 15.43ZM86.83 11.98L86.83 11.98L86.83 11.98Q86.16 11.98 85.51 11.83L85.51 11.83L85.51 11.83Q85.50 11.97 85.50 12.26L85.50 12.26L85.50 12.26Q85.50 13.43 85.93 14.01L85.93 14.01L85.93 14.01Q86.37 14.60 86.97 14.60L86.97 14.60L86.97 14.60Q87.57 14.60 88.12 14.24L88.12 14.24L88.12 14.24Q88.66 13.87 89.07 13.23L89.07 13.23L89.07 13.23Q89.57 13.34 89.57 13.75L89.57 13.75L89.57 13.75Q88.34 15.64 86.39 15.64L86.39 15.64L86.39 15.64Q85.22 15.64 84.34 14.74L84.34 14.74L84.34 14.74Q83.45 13.83 83.45 12.22L83.45 12.22L83.45 12.22Q83.45 11.02 83.92 9.93L83.92 9.93L83.92 9.93Q84.38 8.85 85.39 8.10L85.39 8.10L85.39 8.10Q86.39 7.35 87.62 7.35L87.62 7.35L87.62 7.35Q88.84 7.35 89.42 7.91L89.42 7.91L89.42 7.91Q89.99 8.47 89.99 9.38L89.99 9.38L89.99 9.38Q89.99 10.70 89.08 11.34L89.08 11.34L89.08 11.34Q88.16 11.98 86.83 11.98ZM87.42 8.22L87.42 8.22L87.42 8.22Q86.70 8.22 86.21 9.10L86.21 9.10L86.21 9.10Q85.72 9.98 85.57 11.24L85.57 11.24L85.78 11.24L85.78 11.24Q87.00 11.24 87.58 10.61L87.58 10.61L87.58 10.61Q88.16 9.98 88.16 9.10L88.16 9.10L88.16 9.10Q88.16 8.74 87.97 8.48L87.97 8.48L87.97 8.48Q87.78 8.22 87.42 8.22ZM91.78 15.08L91.78 15.08Q91.62 14.80 91.57 14.54L91.57 14.54L91.57 14.54Q91.53 14.28 91.53 13.73L91.53 13.73L91.53 13.73Q91.53 13.19 92.00 9.44L92.00 9.44L92.00 9.44Q92.47 5.68 92.47 4.28L92.47 4.28L92.47 4.28Q92.47 2.88 92.30 2.46L92.30 2.46L92.30 2.46Q93.35 2.74 93.74 3.31L93.74 3.31L93.74 3.31Q94.12 3.88 94.12 4.91L94.12 4.91L94.12 4.91Q94.12 5.53 93.72 8.92L93.72 8.92L93.72 8.92Q93.31 12.31 93.31 14.38L93.31 14.38L93.31 14.38Q93.31 14.83 93.37 15.64L93.37 15.64L93.37 15.64Q92.09 15.58 91.78 15.08L91.78 15.08Z"></path></g><defs data-v-423bf9ae=""><linearGradient data-v-423bf9ae="" gradientTransform="rotate(25)" id="4a564bac-57b0-4854-aef3-87fc4266768b" x1="0%" y1="0%" x2="100%" y2="0%"><stop data-v-423bf9ae="" offset="0%" style="stop-color: rgb(9, 120, 166); stop-opacity: 1;"></stop><stop data-v-423bf9ae="" offset="100%" style="stop-color: rgb(251, 148, 71); stop-opacity: 1;"></stop></linearGradient></defs><g data-v-423bf9ae="" id="9d78be67-ad2f-400d-9612-06e87731f7d7" transform="matrix(2.8125,0,0,2.8125,-7.170000076293945,0)" stroke="none" fill="url(#4a564bac-57b0-4854-aef3-87fc4266768b)"><path d="M2.83 18.247l26.34-9.124L2.83 0zM29.17 32V13.753L2.83 22.877z"></path></g><!----></svg>